<?xml version="1.0" standalone="no"?>
<!DOCTYPE svg PUBLIC "-//W3C//DTD SVG 20010904//EN"
 "http://www.w3.org/TR/2001/REC-SVG-20010904/DTD/svg10.dtd">
<svg version="1.0" xmlns="http://www.w3.org/2000/svg"
 width="108.000000pt" height="108.000000pt" viewBox="0 0 108.000000 108.000000"
 preserveAspectRatio="xMidYMid meet">
<metadata>
Created by potrace 1.14, written by Peter Selinger 2001-2017
</metadata>
<g transform="translate(0.000000,108.000000) scale(0.100000,-0.100000)"
fill="#000000" stroke="none">
<path d="M478 1065 c-151 -38 -281 -142 -352 -282 -124 -247 -33 -558 204
-697 92 -54 145 -69 260 -71 121 -3 199 17 291 74 30 18 66 34 82 35 36 3 60
27 60 62 0 31 -34 64 -64 64 -26 0 -59 -35 -59 -63 0 -22 -9 -30 -76 -68 -170
-95 -418 -56 -561 89 -172 175 -183 456 -25 647 32 39 116 102 167 126 135 61
286 55 427 -18 69 -36 86 -56 67 -79 -16 -20 -26 -18 -78 15 -227 144 -541 23
-617 -237 -69 -236 75 -470 326 -529 40 -9 153 -2 196 13 145 49 192 118 125
185 -37 36 -64 37 -132 2 -43 -23 -66 -28 -119 -27 -80 1 -134 26 -183 86
-153 188 38 460 268 382 48 -17 63 -40 41 -62 -12 -12 -20 -13 -43 -4 -75 30
-142 20 -197 -29 -80 -70 -84 -191 -8 -262 37 -35 94 -56 141 -51 20 2 55 6
79 7 43 3 69 20 72 47 5 34 -1 50 -25 66 -36 24 -73 11 -91 -31 -12 -29 -19
-35 -45 -35 -111 0 -170 123 -98 204 39 46 85 55 150 32 26 -10 57 -15 67 -12
26 9 63 50 64 72 4 49 -12 72 -66 99 -154 75 -354 -12 -404 -176 -59 -193 57
-368 262 -392 47 -6 138 16 175 42 19 14 31 17 44 10 71 -40 -87 -121 -220
-113 -253 15 -412 279 -305 507 95 202 330 271 523 152 42 -26 63 -33 85 -29
73 13 100 96 47 148 -33 33 -152 91 -213 103 -70 15 -179 13 -242 -2z"/>
</g>
</svg>
