<svg width="24" height="24" viewBox="0 0 24 24" fill="none" xmlns="http://www.w3.org/2000/svg">
<path d="M20.2943 19.2148C18.3647 21.1391 15.8047 22.2004 13.0825 22.2004C10.2671 22.2004 7.54754 21.0181 5.62588 18.9595C3.67496 16.8729 2.70948 14.1454 2.9063 11.2822C3.25473 6.2127 7.34274 2.14596 12.4122 1.82147C14.8951 1.66455 17.338 2.40396 19.2969 3.9107C19.6746 4.20061 19.906 4.63681 19.9379 5.11157C19.9672 5.58234 19.7943 6.04248 19.4618 6.37627L19.4352 6.40287C18.8581 6.98003 17.9245 7.03323 17.2636 6.52788C15.9137 5.49457 14.2328 4.99986 12.5212 5.13551C9.13673 5.40414 6.42114 8.16362 6.2057 11.5548C6.08602 13.4818 6.74297 15.3117 8.05821 16.7147C9.37611 18.1177 11.1581 18.889 13.0825 18.889C14.52 18.889 15.8978 18.4501 17.0641 17.6216C17.2396 17.4966 17.2795 17.3211 17.2875 17.2307C17.3008 17.0711 17.2423 16.9168 17.1306 16.8024L17.0534 16.728C16.8673 16.5418 16.5747 16.5232 16.3433 16.6854C15.2329 17.4594 13.8711 17.8105 12.5079 17.6775C9.85486 17.4195 7.7151 15.3117 7.41455 12.6639C7.2297 11.0361 7.74436 9.41103 8.82421 8.19952C9.90673 6.98934 11.4587 6.29382 13.0825 6.29382C14.0865 6.29382 15.0733 6.55714 15.935 7.05717C16.2595 7.24601 16.5015 7.53858 16.6292 7.88434C16.6691 7.99339 16.6957 8.10776 16.7117 8.22745C16.7782 8.73014 16.6106 9.22219 16.2515 9.58259L16.1824 9.65174C16.0228 9.81132 15.834 9.93101 15.6318 10.0108C15.193 10.181 14.6849 10.1491 14.2368 9.90442C13.758 9.63844 13.2114 9.54801 12.6609 9.6411C11.6356 9.81664 10.811 10.6957 10.6993 11.733C10.6275 12.4245 10.8376 13.0881 11.2978 13.5988C11.7526 14.1041 12.4016 14.3941 13.0811 14.3941C13.7195 14.3941 14.3219 14.144 14.774 13.6945L15.5241 14.4446C14.8725 15.0989 14.0041 15.4579 13.0811 15.4579C12.1023 15.4579 11.1621 15.0404 10.5078 14.3103C9.85353 13.5815 9.53702 12.5987 9.64341 11.6173C9.80566 10.0919 10.9746 8.84717 12.4827 8.59183C13.2753 8.45885 14.0612 8.58917 14.7528 8.97218C14.9842 9.09984 15.2555 9.07059 15.431 8.8977L15.4975 8.82855C15.5906 8.73546 15.6464 8.61843 15.6571 8.4881V8.48545C15.6624 8.44555 15.6597 8.40565 15.6544 8.36576C15.6438 8.26735 15.5932 8.08914 15.4017 7.97744C14.6996 7.57315 13.8977 7.35772 13.0811 7.35772C11.7619 7.35772 10.4972 7.92158 9.61948 8.90967C8.7258 9.90707 8.31753 11.1984 8.4718 12.5442C8.71384 14.6919 10.4546 16.4061 12.6104 16.6163C13.7208 16.7253 14.8299 16.4407 15.7316 15.8104C16.3832 15.3555 17.2543 15.422 17.8048 15.9726L17.8819 16.0471C18.2144 16.3822 18.3846 16.845 18.3447 17.3158C18.3048 17.7865 18.0628 18.2121 17.6798 18.4874C16.33 19.4449 14.7421 19.9516 13.0811 19.9516C10.8935 19.9516 8.77767 19.0366 7.28024 17.4394C5.76286 15.8237 5.00217 13.7078 5.14314 11.4856C5.39049 7.56784 8.52499 4.3828 12.4375 4.07427C14.407 3.92001 16.3526 4.48919 17.9085 5.68208C18.1506 5.8656 18.4751 5.8523 18.6799 5.64751L18.7065 5.62091C18.8262 5.50122 18.8847 5.34696 18.874 5.17939C18.8634 5.00917 18.7809 4.86022 18.6453 4.75383C16.8912 3.40402 14.7009 2.73908 12.48 2.88271C7.93719 3.17528 4.27872 6.81646 3.96621 11.3526C3.79066 13.9206 4.65508 16.3636 6.40119 18.232C8.12337 20.0792 10.5584 21.1352 13.0811 21.1352C15.5188 21.1352 17.8128 20.1856 19.543 18.4608L20.2943 19.2148Z" fill="#D0BD60"/>
<path d="M16.2515 9.58398L16.1824 9.65314C16.0228 9.81272 15.834 9.93241 15.6318 10.0122C15.7754 9.52547 15.7834 8.93767 15.6584 8.4895V8.48684C15.6637 8.44695 15.6611 8.40705 15.6558 8.36715C15.6451 8.26874 15.5946 8.09054 15.4031 7.97883L16.6292 7.88574C16.6691 7.99479 16.6957 8.10916 16.7117 8.22885C16.7782 8.73287 16.6106 9.22492 16.2515 9.58398Z" fill="#BBA64D"/>
<path d="M20.2943 19.2148C18.3647 21.1391 15.8047 22.2004 13.0825 22.2004C10.2671 22.2004 7.54754 21.0181 5.62588 18.9595C3.67496 16.8729 2.70948 14.1454 2.9063 11.2822C3.25473 6.2127 7.34274 2.14596 12.4122 1.82147C14.8951 1.66455 17.338 2.40396 19.2969 3.9107C19.6746 4.20061 19.906 4.63681 19.9379 5.11157C19.9672 5.58234 19.7943 6.04248 19.4618 6.37627L19.4352 6.40287C18.8581 6.98003 17.9245 7.03323 17.2636 6.52788C15.9137 5.49457 14.2328 4.99986 12.5212 5.13551C9.13673 5.40414 6.42114 8.16362 6.2057 11.5548C6.08602 13.4818 6.74297 15.3117 8.05821 16.7147C9.37611 18.1177 11.1581 18.889 13.0825 18.889C14.52 18.889 15.8978 18.4501 17.0641 17.6216C17.0641 17.6216 17.0667 17.619 17.0721 17.6137C17.0747 17.611 17.08 17.6057 17.0854 17.6004C17.205 17.5126 17.2556 17.3929 17.2769 17.3051C17.2822 17.2759 17.2848 17.2519 17.2875 17.2307C17.3008 17.0711 17.2423 16.9168 17.1306 16.8024L17.0534 16.728C16.8673 16.5418 16.5747 16.5232 16.3433 16.6854C15.2329 17.4594 13.8711 17.8105 12.5079 17.6775C9.85486 17.4195 7.7151 15.3117 7.41455 12.6639C7.2297 11.0361 7.74436 9.41103 8.82421 8.19952C9.90673 6.98934 11.4587 6.29382 13.0825 6.29382C14.0865 6.29382 15.0733 6.55714 15.935 7.05717C16.3632 7.30718 16.6478 7.73274 16.7117 8.22878C16.7782 8.73147 16.6106 9.22352 16.2515 9.58392L16.1824 9.65307C16.1664 9.66903 16.1478 9.67967 16.1318 9.69563C16.1531 9.58924 16.1638 9.48019 16.1638 9.36582C16.1638 8.78866 15.8659 8.28331 15.4137 7.9894C15.4084 7.98674 15.4057 7.98142 15.4031 7.97876C15.3924 7.97345 15.3818 7.97079 15.3738 7.96547C15.3233 7.93355 15.2701 7.90695 15.2169 7.88035C14.5599 7.53991 13.8285 7.35905 13.0825 7.35905C11.7632 7.35905 10.4985 7.92291 9.62081 8.911C8.72713 9.90841 8.31886 11.1997 8.47313 12.5455C8.71517 14.6933 10.456 16.4075 12.6117 16.6176C13.7221 16.7266 14.8312 16.442 15.7329 15.8117C16.2382 15.4579 16.8752 15.4207 17.3939 15.676C17.5428 15.7505 17.6838 15.8516 17.8061 15.9739L17.8833 16.0484C18.2157 16.3835 18.386 16.8463 18.3461 17.3171C18.3434 17.3437 18.3408 17.3703 18.3354 17.3969C18.2769 17.8358 18.0429 18.2294 17.6811 18.4874C16.3313 19.4449 14.7435 19.9516 13.0825 19.9516C10.8948 19.9516 8.779 19.0366 7.28157 17.4394C5.76419 15.8237 5.0035 13.7078 5.14447 11.4856C5.39182 7.56784 8.52632 4.3828 12.4388 4.07427C14.4083 3.92001 16.3539 4.48919 17.9099 5.68208C18.1519 5.8656 18.4764 5.8523 18.6812 5.64751L18.7078 5.62091C18.8275 5.50122 18.886 5.34696 18.8754 5.17939C18.8647 5.00917 18.7823 4.86022 18.6466 4.75383C16.8925 3.40402 14.7022 2.73908 12.4814 2.88271C7.93852 3.17528 4.28005 6.81646 3.96754 11.3526C3.79199 13.9206 4.65641 16.3636 6.40252 18.232C8.1247 20.0792 10.5597 21.1352 13.0825 21.1352C15.5201 21.1352 17.8141 20.1856 19.5443 18.4608L20.2943 19.2148Z" fill="#50B748"/>
<path d="M13.9056 14.7293C13.9163 14.9421 13.9043 15.1549 13.8737 15.365C14.4934 15.22 15.0639 14.9089 15.5267 14.4461L14.774 13.6934C14.5094 13.958 14.1929 14.1508 13.8484 14.2665C13.875 14.4181 13.8977 14.5711 13.9056 14.7293Z" fill="#BBA64D"/>
<path d="M15.9989 14.9194C16.467 14.4513 16.467 13.6906 15.9989 13.2212C15.5294 12.7531 14.7701 12.7531 14.3006 13.2212C13.8325 13.6906 13.8325 14.45 14.3006 14.9194C14.7701 15.3876 15.5307 15.3876 15.9989 14.9194Z" fill="#D0BD60"/>
<path d="M18.346 17.3172C18.3434 17.3438 18.3407 17.3704 18.3354 17.397L18.0162 18.0752L17.0641 17.6204C17.0641 17.6204 17.0667 17.6177 17.072 17.6124C17.0747 17.6098 17.08 17.6044 17.0853 17.5991C17.205 17.5114 17.2556 17.3917 17.2768 17.3039C17.4098 17.014 17.5348 16.5033 17.3939 15.6748C17.5428 15.7493 17.6838 15.8503 17.8061 15.9727L17.8833 16.0472C18.2157 16.3836 18.3859 16.8464 18.346 17.3172Z" fill="#2F9923"/>
<path d="M20.2943 19.2148C18.3647 21.1391 15.8047 22.2004 13.0825 22.2004C10.2671 22.2004 7.54754 21.0181 5.62588 18.9595C3.67496 16.8729 2.70948 14.1454 2.9063 11.2822C3.25473 6.2127 7.34274 2.14596 12.4122 1.82147C14.8951 1.66455 17.338 2.40396 19.2969 3.9107C19.6746 4.20061 19.906 4.63681 19.9379 5.11157C19.9486 5.28711 19.9326 5.46265 19.8874 5.63022C19.8156 5.90949 19.6693 6.16748 19.4618 6.37494L19.4352 6.40154C19.1533 6.68347 18.7836 6.8404 18.4033 6.86699C18.007 6.89625 17.6 6.78454 17.2649 6.52655C15.9151 5.49324 14.2341 4.99853 12.5226 5.13418C9.13806 5.40281 6.42247 8.16229 6.20703 11.5535C6.08735 13.4804 6.7443 15.3103 8.05954 16.7133C9.37744 18.1164 11.1595 18.8877 13.0838 18.8877C14.5214 18.8877 15.8991 18.4488 17.0654 17.6203C17.0707 17.615 17.0734 17.6097 17.0787 17.607C17.5814 17.3277 17.9245 16.7905 17.9245 16.1721C17.9245 16.1428 17.9218 16.1162 17.9192 16.087C18.2277 16.4194 18.3846 16.861 18.3474 17.3158C18.3075 17.7865 18.0655 18.2121 17.6825 18.4874C16.3327 19.4449 14.7448 19.9516 13.0838 19.9516C10.8961 19.9516 8.78033 19.0366 7.2829 17.4394C5.76552 15.8237 5.00483 13.7078 5.1458 11.4856C5.39315 7.56784 8.52765 4.3828 12.4401 4.07427C14.4097 3.92001 16.3553 4.48919 17.9112 5.68208C18.1532 5.8656 18.4777 5.8523 18.6825 5.64751L18.7091 5.62091C18.7251 5.60495 18.741 5.58899 18.7517 5.57037C18.8421 5.46132 18.8847 5.32568 18.8767 5.17939C18.8661 5.00917 18.7836 4.86022 18.648 4.75383C16.8939 3.40402 14.7036 2.73908 12.4827 2.88271C7.93985 3.17528 4.28138 6.81646 3.96887 11.3526C3.79332 13.9206 4.65774 16.3636 6.40385 18.232C8.12603 20.0792 10.561 21.1352 13.0838 21.1352C15.5214 21.1352 17.8155 20.1856 19.5456 18.4608L20.2943 19.2148Z" fill="#D0BD60"/>
<path d="M19.886 5.62935C19.8142 5.90862 19.668 6.16662 19.4605 6.37408L19.4339 6.40068C19.152 6.68261 18.7823 6.83953 18.4019 6.86613C18.5615 6.57622 18.7424 6.12938 18.7503 5.56951C18.8408 5.46046 18.8833 5.32481 18.8753 5.17853C18.8647 5.0083 18.7823 4.85936 18.6466 4.75297L19.2982 4.45508C19.2982 4.45641 19.5935 5.04421 19.886 5.62935Z" fill="#BBA64D"/>
<path d="M19.543 18.4594C17.8141 20.1842 15.5201 21.1351 13.0825 21.1351C10.5597 21.1351 8.12603 20.0778 6.40386 18.2333C4.65774 16.3622 3.79332 13.9192 3.96887 11.3539C4.28006 6.81637 7.93985 3.17386 12.4814 2.88395C14.6357 2.74431 16.7569 3.36802 18.4831 4.63406C18.5349 4.66863 18.5855 4.70454 18.6333 4.74444C18.6386 4.74843 18.6426 4.75109 18.648 4.75508C18.6719 4.77369 18.6918 4.79497 18.7118 4.81625C19.0283 5.11547 19.2264 5.53837 19.2264 6.00781C19.2264 6.23655 19.1786 6.45465 19.0948 6.6528C19.2158 6.58364 19.3328 6.50385 19.4352 6.40012L19.4618 6.37353C19.7943 6.04106 19.9685 5.58092 19.9379 5.11148C19.9073 4.63805 19.6733 4.20052 19.2969 3.91194C17.338 2.40653 14.8964 1.66446 12.4135 1.82271C7.34141 2.14587 3.25473 6.21261 2.9063 11.2807C2.70948 14.1439 3.67496 16.8715 5.62455 18.9594C7.54754 21.0194 10.2658 22.199 13.0811 22.199C15.8034 22.199 18.3647 21.1377 20.2943 19.2121L19.543 18.4594Z" fill="#50B748"/>
<path d="M19.543 18.459C19.2411 18.7595 18.9219 19.0361 18.5881 19.2888C18.7118 19.5003 18.8209 19.7303 18.914 19.983C18.9512 20.0854 18.9831 20.1918 19.0084 20.3009C19.4619 19.9764 19.8927 19.6146 20.2957 19.213L19.543 18.459Z" fill="#2F9923"/>
<path d="M19.0708 17.9876C19.5403 17.5195 20.301 17.5195 20.7691 17.989C21.2372 18.4584 21.2372 19.2191 20.7677 19.6872C20.2983 20.1553 19.5389 20.1553 19.0695 19.6859C18.6001 19.2164 18.6014 18.4558 19.0708 17.9876Z" fill="#D0BD60"/>
</svg>
